<svg width="60" height="60" viewBox="0 0 60 60" fill="none" xmlns="http://www.w3.org/2000/svg">
<path d="M22.7484 22.6219C22.7484 19.2656 20.4656 19.2656 20.4656 19.2656H11.0906V26.4609H19.8843C21.4031 26.4609 22.7484 25.9734 22.7484 22.6219ZM20.4656 31.4344H11.0906V40.05H20.0437C21.389 40.0125 23.8781 39.5813 23.8781 35.8594C23.864 31.4063 20.4656 31.4344 20.4656 31.4344ZM44.4984 26.4609C39.5156 26.4609 38.8218 31.4297 38.8218 31.4297H49.4156C49.4156 31.4297 49.4812 26.4609 44.4984 26.4609Z" fill="white"/>
<path d="M52.1484 1.0127H7.85151C6.03768 1.0127 4.29814 1.73324 3.01557 3.01581C1.73299 4.29838 1.01245 6.03793 1.01245 7.85176V52.1439C1.01245 53.9578 1.73299 55.6973 3.01557 56.9799C4.29814 58.2625 6.03768 58.983 7.85151 58.983H52.1437C53.9575 58.983 55.6971 58.2625 56.9796 56.9799C58.2622 55.6973 58.9828 53.9578 58.9828 52.1439V7.85176C58.9828 6.03874 58.2629 4.29991 56.9813 3.01747C55.6997 1.73503 53.9614 1.01394 52.1484 1.0127ZM37.4343 15.4314H50.7375V19.4064H37.4343V15.4314ZM30.7078 36.2627C30.7078 46.1064 20.4656 45.783 20.4656 45.783H3.68433V13.533H20.4656C25.5656 13.533 29.5921 16.3455 29.5921 22.1205C29.5921 27.8955 24.6703 28.2564 24.6703 28.2564C31.1578 28.2564 30.7078 36.2627 30.7078 36.2627ZM55.5937 35.7377H38.9062C38.9062 41.7283 44.5828 41.3627 44.5828 41.3627C49.9406 41.3627 49.739 37.8939 49.739 37.8939H55.4062C55.4062 47.1002 44.3718 46.4674 44.3718 46.4674C31.1296 46.4674 31.9828 34.1393 31.9828 34.1393C31.9828 34.1393 31.9828 21.7502 44.3718 21.7502C57.4265 21.7408 55.5984 35.7377 55.5984 35.7377H55.5937Z" fill="white"/>
</svg>
