<svg width="60" height="60" viewBox="0 0 60 60" fill="none" xmlns="http://www.w3.org/2000/svg">
<path d="M51.2563 8.73015C48.4921 5.95194 45.1995 3.74917 41.5708 2.25033C37.942 0.75148 34.0496 -0.0134403 30.1206 0.000178708C13.6583 0.000178708 0.241207 13.3501 0.241207 29.7301C0.241207 34.9801 1.62814 40.0801 4.22111 44.58L0 60L15.8291 55.86C20.201 58.23 25.1156 59.49 30.1206 59.49C46.5829 59.49 60 46.14 60 29.7601C60 21.8101 56.8945 14.3401 51.2563 8.73015ZM30.1206 54.45C25.6583 54.45 21.2864 53.25 17.4573 51L16.5528 50.46L7.14573 52.92L9.64824 43.8L9.04523 42.8701C6.56607 38.931 5.24967 34.3778 5.24623 29.7301C5.24623 16.1101 16.402 5.01016 30.0904 5.01016C36.7236 5.01016 42.9648 7.59016 47.6382 12.2701C49.9522 14.562 51.786 17.2881 53.0333 20.2904C54.2807 23.2927 54.9167 26.5114 54.9045 29.7601C54.9648 43.38 43.809 54.45 30.1206 54.45ZM43.7487 35.9701C42.995 35.6101 39.3166 33.8101 38.6533 33.5401C37.9598 33.3001 37.4774 33.1801 36.9648 33.9001C36.4523 34.6501 35.0352 36.3301 34.6131 36.8101C34.191 37.3201 33.7387 37.3801 32.9849 36.9901C32.2312 36.6301 29.8191 35.8201 26.9849 33.3001C24.7538 31.3201 23.2764 28.8901 22.8241 28.1401C22.402 27.3901 22.7638 27.0001 23.1558 26.6101C23.4874 26.2801 23.9095 25.7401 24.2714 25.3201C24.6332 24.9001 24.7839 24.5701 25.0251 24.0901C25.2663 23.5801 25.1457 23.1601 24.9648 22.8001C24.7839 22.4401 23.2764 18.7801 22.6734 17.2801C22.0703 15.8401 21.4372 16.0201 20.9849 15.9901H19.5377C19.0251 15.9901 18.2412 16.1701 17.5477 16.9201C16.8844 17.6701 14.9548 19.4701 14.9548 23.1301C14.9548 26.7901 17.6382 30.3301 18 30.8101C18.3618 31.3201 23.2764 38.8201 30.7538 42.0301C32.5327 42.8101 33.9196 43.2601 35.005 43.5901C36.7839 44.16 38.4121 44.07 39.7085 43.89C41.1558 43.68 44.1407 42.0901 44.7437 40.3501C45.3769 38.6101 45.3769 37.1401 45.1658 36.8101C44.9548 36.4801 44.5025 36.3301 43.7487 35.9701Z" fill="white"/>
</svg>
